<svg xmlns="http://www.w3.org/2000/svg" width="1600" height="139" viewBox="0 0 1600 139" version="1.1">
	<path d="M 153.287 25.679 C 151.717 31.308, 152.754 50.171, 155.354 63.254 C 157.640 74.761, 158.429 76.927, 163.420 85.407 C 166.462 90.576, 170.478 96.424, 172.344 98.403 L 175.736 102 165.991 102 C 154.616 102, 154.058 102.368, 153.300 110.356 C 152.863 114.957, 153.106 116.106, 154.892 117.892 C 157.537 120.537, 160.567 120.562, 164.810 117.974 C 168.119 115.957, 171 110.864, 171 107.032 C 171 103.345, 177.327 104.406, 188.118 109.904 C 193.407 112.598, 201.057 115.575, 205.118 116.519 C 209.178 117.462, 214.662 118.839, 217.305 119.579 C 223.823 121.405, 245 122.655, 245 121.214 C 245 119.698, 242.846 119.255, 232 118.541 C 226.775 118.197, 220.250 117.285, 217.500 116.515 C 214.750 115.745, 209.350 114.380, 205.500 113.482 C 201.650 112.584, 195.632 110.386, 192.126 108.598 L 185.752 105.346 210.126 105.221 C 235.074 105.093, 245.701 104.270, 245.239 102.500 C 245.095 101.950, 242.395 101.583, 239.239 101.685 C 236.082 101.787, 221.699 101.943, 207.275 102.032 C 181.126 102.192, 181.041 102.186, 178.188 99.846 C 174.305 96.661, 169.971 90.893, 165.091 82.411 C 159.505 72.702, 155.806 55.392, 155.815 39 C 155.818 32.675, 155.974 26.648, 156.160 25.608 C 156.712 22.532, 154.147 22.595, 153.287 25.679 M 1457.663 23.750 C 1457.412 24.163, 1457.617 26.975, 1458.117 30 C 1459.228 36.720, 1457.794 52.955, 1454.930 66.080 C 1452.469 77.354, 1447.029 87.664, 1439 96.273 L 1433.500 102.170 1407 102.018 C 1392.425 101.934, 1377.918 101.783, 1374.761 101.683 C 1371.605 101.582, 1368.905 101.950, 1368.761 102.500 C 1368.299 104.270, 1378.926 105.093, 1403.877 105.221 L 1428.253 105.346 1421.877 108.525 C 1418.369 110.273, 1412.350 112.482, 1408.500 113.432 C 1404.650 114.383, 1399.250 115.788, 1396.500 116.555 C 1393.750 117.321, 1386.927 118.246, 1381.337 118.611 C 1371.132 119.277, 1368.268 120.006, 1369.300 121.677 C 1370.042 122.878, 1388.844 121.392, 1396.500 119.528 C 1399.800 118.724, 1405.629 117.316, 1409.453 116.399 C 1413.278 115.482, 1420.703 112.542, 1425.953 109.867 C 1436.675 104.405, 1443 103.353, 1443 107.032 C 1443 110.864, 1445.881 115.957, 1449.190 117.974 C 1453.431 120.560, 1456.463 120.537, 1459.102 117.898 C 1460.944 116.056, 1461.118 115.095, 1460.506 110.148 C 1460.122 107.041, 1459.346 103.938, 1458.781 103.250 C 1458.088 102.406, 1454.592 102, 1448.009 102 L 1438.264 102 1441.588 98.475 C 1443.417 96.536, 1447.411 90.706, 1450.464 85.518 C 1455.457 77.035, 1456.275 74.798, 1458.599 63.293 C 1462.176 45.584, 1462.423 23, 1459.040 23 C 1458.533 23, 1457.913 23.337, 1457.663 23.750 M 156.642 108.750 C 155.662 114.675, 155.866 115.823, 158.015 116.505 C 160.652 117.342, 166.582 113.687, 167.373 110.739 C 168.774 105.510, 168.352 105, 162.631 105 L 157.262 105 156.642 108.750 M 1446.014 106.750 C 1446.058 112.372, 1451.679 117.871, 1455.985 116.505 C 1458.134 115.823, 1458.338 114.675, 1457.358 108.750 L 1456.738 105 1451.369 105 C 1446.917 105, 1446.002 105.299, 1446.014 106.750" stroke="none" fill="#c59606" fill-rule="evenodd"/>
</svg>