<svg xmlns="http://www.w3.org/2000/svg" width="962" height="415" viewBox="0 0 962 415" version="1.1">
	<path d="M 0 9 L 0 18 35.277 18 C 65.701 18, 70.863 18.216, 72.794 19.568 C 75.685 21.593, 74.732 23.229, 71.399 21.962 C 69.958 21.414, 54.059 21, 34.435 21 L 0 21 0 24 L 0 27 34.941 27 C 56.665 27, 70.111 27.370, 70.487 27.979 C 70.820 28.518, 70.606 29.868, 70.011 30.979 C 68.958 32.947, 68.024 33, 34.465 33 C 4.496 33, 0 33.196, 0 34.500 C 0 35.802, 4.205 36, 31.845 36 L 63.691 36 63.884 150.500 L 64.077 265 32.038 265 C 4.351 265, 0 265.202, 0 266.487 C 0 267.769, 4.768 268.010, 34.641 268.237 C 66.377 268.478, 69.375 268.647, 70.386 270.250 C 71.131 271.431, 71.166 272.506, 70.495 273.556 C 69.624 274.918, 65.163 275.103, 34.750 275.032 L 0 274.952 0 278.976 L 0 283 33.750 283.033 C 65.269 283.064, 67.649 283.191, 69.750 284.944 C 70.988 285.976, 72 287.086, 72 287.410 C 72 287.735, 55.800 288, 36 288 L 0 288 0 292 L 0 296 41.063 296 L 82.127 296 81.813 299.250 L 81.500 302.500 40.750 302.761 C 0.831 303.017, -0 303.063, -0 305.011 C -0 306.968, 0.755 307, 46.750 307 L 93.500 307 93.147 315.500 C 92.658 327.286, 94.624 326.530, 95.519 314.587 C 95.907 309.410, 96.039 304.616, 95.811 303.933 C 95.555 303.165, 93.323 302.656, 89.949 302.596 L 84.500 302.500 84.196 297.759 C 83.874 292.743, 84.214 293.149, 71.582 282.723 L 68.664 280.314 71.582 276.657 C 74.148 273.441, 75.043 272.995, 79 272.957 C 81.475 272.933, 89.575 272.477, 97 271.943 C 114.975 270.650, 153.777 268.329, 178.500 267.068 C 189.500 266.507, 207.275 265.567, 218 264.980 C 252.511 263.091, 308.825 261.317, 405.500 259.071 C 489.223 257.127, 673.943 258.699, 748.500 261.990 C 761.700 262.572, 783.525 263.502, 797 264.055 C 818.151 264.923, 839.381 265.980, 887 268.535 C 902.040 269.342, 904 269.738, 904 271.969 C 904 273.001, 905.139 275.200, 906.531 276.855 L 909.063 279.863 902.204 285.405 C 894.991 291.233, 893 294.184, 893 299.047 C 893 301.868, 892.804 302, 888.622 302 C 882.216 302, 881.627 303.197, 882.474 314.496 C 883.369 326.433, 885.271 327.253, 884.823 315.509 L 884.500 307.018 923.500 306.759 L 962.500 306.500 962.820 304.250 L 963.139 302 929.677 302 C 893.880 302, 894.384 302.073, 895.685 297.096 C 896.228 295.021, 896.562 295, 929.617 295 L 963 295 963.001 291.250 L 963.001 287.500 933.298 287.780 L 903.596 288.059 905.957 285.546 L 908.319 283.032 935.409 282.766 L 962.500 282.500 962.796 278.500 L 963.092 274.500 934.664 274.780 C 909.349 275.029, 906.169 274.884, 905.622 273.457 C 904.895 271.562, 906.555 268.065, 908.285 267.846 C 908.953 267.762, 921.416 267.649, 935.981 267.596 C 958.670 267.514, 962.504 267.285, 962.757 266 C 963.014 264.692, 959.780 264.536, 937.522 264.783 L 911.992 265.066 912.246 150.783 L 912.500 36.500 937.487 36 C 958.634 35.577, 962.519 35.269, 962.763 34 C 963.015 32.691, 959.599 32.536, 935.917 32.782 C 907.703 33.075, 906 32.853, 906 28.893 C 906 27.127, 907.460 27.017, 934.250 26.766 L 962.500 26.500 962.796 23.500 L 963.092 20.500 934.296 21 C 918.458 21.275, 904.969 21.845, 904.319 22.266 C 902.746 23.287, 901.903 21.775, 903.028 19.952 C 903.767 18.755, 909.072 18.412, 933.212 18 L 962.500 17.500 962.789 8.750 L 963.078 0 924.504 0 L 885.930 0 887.036 2.067 C 888.159 4.165, 896.516 9.987, 898.446 10.015 C 901.509 10.060, 902.205 11.703, 900.531 14.940 C 898.555 18.760, 899.273 23.540, 902.044 25.024 C 903.079 25.577, 903.685 26.658, 903.390 27.425 C 902.718 29.177, 905.619 34.917, 907.552 35.658 C 908.769 36.125, 909 40.739, 909 64.548 C 909 81.413, 908.615 93.120, 908.048 93.471 C 905.752 94.889, 883.224 102.484, 869.377 106.506 C 826.195 119.052, 775.072 128.818, 712 136.570 C 685.810 139.789, 648.713 143.366, 625 144.959 C 617.025 145.495, 603.525 146.419, 595 147.013 C 546.105 150.417, 448.278 151.934, 398 150.067 C 347.326 148.186, 310.752 146.177, 287.500 143.997 C 281.450 143.429, 271.550 142.501, 265.500 141.933 C 221.499 137.803, 181.757 132.344, 149.500 125.998 C 114.008 119.015, 103.132 116.452, 76.500 108.799 L 68.500 106.500 68.237 71.808 L 67.974 37.117 70.507 34.584 C 71.900 33.191, 73.307 30.713, 73.635 29.077 C 73.962 27.441, 75.078 25.334, 76.115 24.396 C 78.427 22.303, 78.550 17.769, 76.383 14.462 C 74.796 12.039, 74.831 11.969, 78.351 10.498 C 80.323 9.674, 82.212 9, 82.550 9 C 83.619 9, 92 1.798, 92 0.880 C 92 0.386, 71.800 0, 46 0 L 0 0 0 9 M 54.667 39.667 C 53.502 40.832, 53.876 259.805, 55.044 260.527 C 55.618 260.882, 56.743 260.628, 57.544 259.964 C 58.802 258.919, 59 244.007, 59 150.078 C 59 42.214, 58.912 39, 55.967 39 C 55.618 39, 55.033 39.300, 54.667 39.667 M 918.200 40.200 C 917.281 41.119, 917 67.022, 917 150.700 C 917 257.274, 917.047 260, 918.893 260 C 919.934 260, 921.059 259.288, 921.393 258.418 C 922.183 256.359, 922.161 44.201, 921.370 41.250 C 920.689 38.710, 919.938 38.462, 918.200 40.200 M 10.488 41.180 C 10.211 41.906, 10.101 91.550, 10.242 151.500 L 10.500 260.500 13 260.500 L 15.500 260.500 15.500 150.500 L 15.500 40.500 13.246 40.180 C 12.006 40.004, 10.765 40.454, 10.488 41.180 M 33.511 42.184 C 33.203 43.458, 33.075 92.875, 33.226 152 L 33.500 259.500 35.754 259.820 L 38.009 260.140 37.754 150.334 C 37.516 47.541, 37.390 40.506, 35.786 40.197 C 34.672 39.983, 33.875 40.678, 33.511 42.184 M 937 149.927 C 937 259.414, 937.011 260, 939.004 260 C 941 260, 941.008 259.498, 940.754 150.264 C 940.514 46.664, 940.402 40.508, 938.750 40.190 C 937.092 39.871, 937 45.633, 937 149.927 M 957.461 41.250 C 957.199 41.938, 957.101 91.276, 957.242 150.891 C 957.486 253.541, 957.594 259.341, 959.278 260.391 C 960.656 261.250, 961.273 261.162, 962.013 260 C 962.606 259.070, 962.975 217.008, 962.985 149.250 L 963 40 960.469 40 C 959.076 40, 957.723 40.563, 957.461 41.250 M 1 151 C 1 238.689, 1.255 261.082, 2.250 260.750 C 3.240 260.420, 3.500 237.578, 3.500 151 C 3.500 64.422, 3.240 41.580, 2.250 41.250 C 1.255 40.918, 1 63.311, 1 151 M 22.229 42.171 C 20.294 44.106, 20.453 256.870, 22.392 259.521 C 23.576 261.141, 24.024 261.225, 25.396 260.086 C 26.865 258.868, 26.986 249.026, 26.754 150.138 C 26.529 53.863, 26.327 41.494, 24.979 41.234 C 24.143 41.073, 22.905 41.495, 22.229 42.171 M 44.493 42.167 C 44.214 42.900, 44.101 92.325, 44.242 152 C 44.470 247.663, 44.677 260.500, 46 260.500 C 47.324 260.500, 47.500 247.676, 47.500 151.083 C 47.500 64.463, 47.240 41.580, 46.251 41.250 C 45.563 41.021, 44.772 41.434, 44.493 42.167 M 927.688 41.646 C 927.309 42.024, 927 91.308, 927 151.167 C 927 259.413, 927.011 260, 929.004 260 C 931 260, 931.008 259.498, 930.754 150.833 C 930.577 74.877, 930.177 41.559, 929.438 41.312 C 928.853 41.118, 928.066 41.268, 927.688 41.646 M 947.511 43.184 C 947.203 44.458, 947.075 93.650, 947.226 152.500 C 947.498 258.742, 947.514 259.500, 949.500 259.500 C 951.488 259.500, 951.500 258.833, 951.500 150.514 C 951.500 48.378, 951.392 41.507, 949.786 41.197 C 948.672 40.983, 947.875 41.678, 947.511 43.184 M 899.500 108.174 C 886.333 112.362, 860.713 119.458, 851.500 121.468 C 847.100 122.428, 841.025 123.808, 838 124.535 C 831.847 126.012, 813.563 129.580, 792.500 133.413 C 774.410 136.705, 738.039 142.025, 723.500 143.505 C 720.200 143.842, 714.350 144.538, 710.500 145.053 C 696.101 146.978, 658.689 150.476, 631 152.486 C 611.729 153.884, 598.747 154.587, 547.498 157.008 C 520.030 158.305, 413.843 158.284, 385.602 156.976 C 306.242 153.300, 269.953 150.485, 217.500 143.938 C 208.700 142.840, 198.575 141.500, 195 140.961 C 161.721 135.943, 159.780 135.612, 136.139 130.909 C 115.104 126.724, 90.721 120.921, 76.132 116.627 C 71.530 115.273, 68.155 114.538, 68.632 114.994 C 70.532 116.812, 102.682 125.398, 126.500 130.449 C 255.123 157.727, 438.952 166.553, 627 154.481 C 643.693 153.409, 684.718 149.666, 704.500 147.410 C 759.805 141.102, 796.384 135.244, 844.500 124.989 C 862.621 121.127, 904.452 109.304, 907.971 107.051 C 911.120 105.034, 908.123 105.432, 899.500 108.174 M 902 117.589 C 866.519 129.061, 826.669 137.634, 763 147.495 C 731.869 152.316, 675.666 158.166, 633.500 160.974 C 625.250 161.524, 611.975 162.431, 604 162.990 C 538.034 167.618, 398.379 167.617, 335 162.990 C 327.575 162.448, 314.750 161.541, 306.500 160.975 C 214.272 154.645, 122.971 140.161, 69.750 123.416 C 68.520 123.029, 68 123.409, 68 124.697 C 68 126.180, 70.043 127.074, 78.750 129.403 C 122.686 141.152, 134.989 143.746, 184 151.597 C 219.045 157.211, 277.657 163.452, 319 165.973 C 328.075 166.526, 342.025 167.442, 350 168.008 C 402.156 171.711, 540.538 171.716, 594.500 168.017 C 602.750 167.452, 616.925 166.531, 626 165.971 C 694.641 161.735, 755.833 154.384, 820.500 142.606 C 847.280 137.728, 902.850 123.683, 908.026 120.484 C 909.445 119.607, 909.220 115.988, 907.750 116.067 C 907.063 116.104, 904.475 116.789, 902 117.589 M 900.542 137.709 C 896.627 138.745, 894.159 141.201, 891.909 146.298 C 889.964 150.705, 889.550 153.647, 889.201 165.544 L 888.788 179.588 898.644 178.544 L 908.500 177.500 908.762 173.500 C 908.906 171.300, 908.681 162.300, 908.262 153.500 L 907.500 137.500 905 137.345 C 903.625 137.260, 901.619 137.423, 900.542 137.709 M 68 160.391 L 68 179.783 79.532 181.526 C 85.875 182.485, 91.330 183.004, 91.654 182.679 C 92.660 181.673, 89.944 152.803, 88.524 149.403 C 86.580 144.752, 79.722 141, 73.162 141 L 68 141 68 160.391 M 841.500 151.386 C 839.849 152.105, 837.876 153.444, 837.115 154.361 C 834.093 158.002, 830.734 181.461, 832.774 184.669 C 833.336 185.551, 836.377 185.578, 845.179 184.777 C 851.593 184.194, 857.430 183.352, 858.150 182.907 C 860.332 181.559, 859.976 161.371, 857.697 157.197 C 853.770 150.004, 848.779 148.213, 841.500 151.386 M 123.437 153.300 C 121.049 155.355, 120.671 156.597, 119.902 164.932 C 119.429 170.064, 118.797 175.667, 118.497 177.382 C 118.198 179.097, 118.333 181.850, 118.797 183.500 C 119.624 186.443, 119.798 186.514, 128.070 187.252 C 132.706 187.666, 137.729 188.505, 139.232 189.116 C 143.913 191.020, 144.745 189.909, 145.509 180.731 C 146.255 171.782, 144.951 162.504, 142.314 157.985 C 138.441 151.348, 128.558 148.896, 123.437 153.300 M 786.503 158.737 C 783.878 159.401, 780.078 163.570, 778.368 167.662 C 776.987 170.966, 776.508 184.563, 777.625 188.731 C 778.204 190.888, 778.526 190.943, 787.362 190.391 C 792.388 190.077, 797.917 189.390, 799.649 188.866 C 802.644 187.958, 802.775 187.706, 802.334 183.706 C 801.768 178.570, 800.276 170.977, 798.688 165.147 C 797.076 159.229, 793.012 157.091, 786.503 158.737 M 178.837 160.673 C 175.411 161.580, 173.529 167.887, 173.171 179.657 L 172.832 190.814 180.666 191.504 C 184.975 191.883, 190.288 192.575, 192.473 193.041 C 194.658 193.506, 196.486 193.800, 196.534 193.694 C 196.583 193.587, 196.370 187.585, 196.062 180.355 C 195.581 169.112, 195.211 166.885, 193.500 164.967 C 190.003 161.045, 184.032 159.296, 178.837 160.673 M 732.354 166.692 C 731.174 166.923, 729.431 167.971, 728.481 169.021 C 726.207 171.534, 724.036 181, 724.014 188.500 L 723.996 194.500 734.998 194.188 L 746 193.875 746 181.463 L 746 169.051 743.050 167.526 C 740.212 166.058, 736.910 165.801, 732.354 166.692 M 228.500 167.945 C 227.400 168.396, 225.600 169.764, 224.500 170.987 C 222.749 172.933, 222.500 174.618, 222.500 184.522 C 222.500 190.743, 222.725 196.035, 223 196.282 C 223.275 196.529, 228.169 197.041, 233.875 197.420 L 244.250 198.109 243.814 186.304 C 243.573 179.781, 242.833 173.498, 242.159 172.260 C 239.857 168.028, 233.333 165.967, 228.500 167.945 M 679.828 170.037 C 675.274 172.694, 672.033 184.319, 673.472 192.837 L 674.102 196.565 685.051 196.682 L 696 196.799 696.145 191.649 C 696.514 178.590, 695.060 172.599, 691.013 170.507 C 687.721 168.804, 682.328 168.578, 679.828 170.037 M 277.090 173.854 C 272.309 175.230, 270.913 178.690, 270.836 189.351 C 270.798 194.713, 270.931 199.262, 271.133 199.461 C 271.335 199.660, 275.775 199.959, 281 200.125 L 290.500 200.427 290.813 194.464 C 291.231 186.500, 289.111 177.113, 286.515 175.437 C 283.759 173.657, 279.979 173.022, 277.090 173.854 M 631.500 175.143 C 625.502 178.533, 625 179.704, 625 190.317 L 625 200.285 631.147 199.642 C 634.527 199.289, 639.027 199, 641.147 199 L 645 199 644.882 191.750 C 644.817 187.762, 644.479 183.198, 644.132 181.606 C 643.044 176.620, 635.613 172.818, 631.500 175.143 M 319.580 177.911 C 317.357 180.368, 316.103 197.456, 317.899 200.812 C 318.953 202.781, 319.866 203, 327.035 203 L 335 203 334.976 194.750 C 334.948 184.876, 333.735 179.011, 331.364 177.277 C 328.641 175.286, 321.614 175.664, 319.580 177.911 M 906.500 192.527 C 905.533 192.884, 901.123 193.347, 868.075 196.564 C 817.145 201.522, 746.730 206.494, 691.500 209.032 C 490.007 218.291, 267.396 213.659, 88.971 196.494 C 69.493 194.620, 68 194.619, 68 196.481 C 68 198.671, 65.008 198.298, 120.500 203.028 C 199.949 209.800, 296.342 214.692, 397 217.062 C 439.500 218.063, 578.749 218.379, 599.500 217.522 C 605.550 217.272, 622.425 216.814, 637 216.505 C 688.934 215.401, 749.265 212.896, 806 209.488 C 840.447 207.419, 891.823 203.705, 903.750 202.421 L 909 201.856 909 196.928 C 909 192.198, 908.721 191.707, 906.500 192.527 M 70.750 213.299 L 68 214.386 68 239.578 L 68 264.770 70.458 266.380 C 72.640 267.810, 74.319 267.858, 85.458 266.809 L 98 265.627 98 248.256 C 98 223.521, 96.456 218.518, 87.542 214.367 C 82.131 211.848, 75.492 211.426, 70.750 213.299 M 892.818 214.686 C 882.777 218.036, 880.768 223.652, 881.222 247.099 L 881.500 261.445 885.500 262.110 C 887.700 262.475, 893.818 262.955, 899.096 263.177 L 908.691 263.579 908.913 239.361 C 909.126 216.043, 909.060 215.102, 907.133 214.071 C 904.346 212.580, 898.359 212.837, 892.818 214.686 M 130.275 216.971 C 122.615 218.791, 120.729 222.164, 118.925 237.270 C 118.222 243.160, 118.291 248.254, 119.167 255.186 C 120.382 264.795, 120.412 264.868, 122.946 264.378 C 124.351 264.107, 131.575 263.574, 139 263.193 L 152.500 262.500 152.476 246.500 C 152.454 231.961, 152.251 230.120, 150.249 226.334 C 148.035 222.150, 144.897 219.432, 139.703 217.201 C 136.613 215.874, 135.052 215.836, 130.275 216.971 M 836.741 219.370 C 831.825 221.202, 829.977 222.813, 828.363 226.675 C 826.816 230.377, 824.580 256.993, 825.724 258.097 C 826.151 258.508, 834.294 259.169, 843.821 259.564 L 861.142 260.283 860.821 244.211 C 860.474 226.814, 860.044 225.362, 853.879 220.759 C 850.564 218.284, 841.603 217.557, 836.741 219.370 M 183.479 220.919 C 178.634 222.097, 175.239 224.863, 173.154 229.333 C 171.425 233.038, 171.269 235.041, 171.740 247.392 L 172.271 261.284 181.885 260.647 C 187.173 260.297, 193.895 260.008, 196.822 260.005 L 202.144 260 201.822 245.168 C 201.508 230.704, 201.431 230.246, 198.709 226.682 C 194.595 221.293, 189.645 219.421, 183.479 220.919 M 779.500 221.959 C 775.917 223.451, 772.389 228.391, 771.094 233.730 C 769.803 239.051, 770.374 252.369, 772.006 255.009 C 773.157 256.872, 803.079 258.476, 804.185 256.734 C 805.332 254.929, 805.176 251.578, 803.473 241.500 C 801.460 229.586, 799.701 225.762, 795.022 223.132 C 791.080 220.917, 783.398 220.337, 779.500 221.959 M 229.022 225.284 C 224.866 227.386, 223.116 233.849, 223.054 247.327 L 223 259.153 235.750 258.450 C 242.762 258.063, 248.773 257.592, 249.107 257.402 C 250.341 256.703, 250.824 245.817, 249.911 239.263 C 249.393 235.543, 248.156 231.375, 247.163 230 C 243.385 224.769, 234.569 222.477, 229.022 225.284 M 729.035 225.250 C 722.061 227.766, 717.562 240.110, 720.063 249.867 L 721.358 254.923 727.429 255.097 C 730.768 255.192, 737.100 255.322, 741.500 255.385 L 749.500 255.500 749.813 247 C 750.173 237.224, 749.104 232.835, 745.243 228.228 C 742.983 225.532, 741.620 224.873, 737.500 224.478 C 734.726 224.212, 730.958 224.556, 729.035 225.250 M 279 225.699 C 273.065 227.923, 270.633 233.966, 270.708 246.300 C 270.741 251.691, 270.952 256.286, 271.178 256.511 C 271.404 256.737, 277.081 256.646, 283.794 256.308 L 296 255.695 296 246.213 C 296 233.446, 294.750 229.513, 290.107 227.673 C 285.383 225.801, 280.868 224.999, 279 225.699 M 630.500 227.213 C 626.235 228.713, 625.153 229.774, 622.950 234.609 C 620.829 239.265, 620.348 247.913, 622.035 251.066 C 622.980 252.831, 624.246 253, 636.535 253 L 650 253 650 243.868 L 650 234.737 645.632 230.368 C 641.918 226.655, 640.682 226.012, 637.382 226.079 C 635.247 226.122, 632.150 226.633, 630.500 227.213 M 320.308 228.010 C 315.551 229.926, 314.589 233.224, 314.844 246.750 L 315 255 323.860 255 C 328.734 255, 334.809 254.714, 337.360 254.364 L 342 253.728 342 246.504 C 342 234.027, 341.112 230.109, 337.907 228.452 C 334.818 226.855, 323.860 226.579, 320.308 228.010 M 677.500 227.719 C 672.209 229.008, 669.711 235.429, 670.194 246.500 L 670.500 253.500 684.115 253.777 L 697.729 254.055 698.354 250.277 C 699.306 244.517, 699.120 237.643, 697.920 234.200 C 696.033 228.789, 686.078 225.629, 677.500 227.719" stroke="none" fill="#a4baaf" fill-rule="evenodd"/>
</svg>