<svg xmlns="http://www.w3.org/2000/svg" width="224" height="323" viewBox="0 0 224 323" version="1.1">
	<path d="M 93.850 6.452 C 58.701 11.504, 31.123 28.664, 19.051 52.993 C 13.749 63.678, 13.918 58.907, 14.219 189.260 L 14.500 311.020 111.500 311.020 L 208.500 311.020 208.754 189.780 C 209.036 54.961, 209.486 64.500, 202.193 50.572 C 191.272 29.715, 164.739 12.762, 134.672 7.430 C 122.462 5.264, 105.021 4.847, 93.850 6.452 M 87.500 9.921 C 65.261 14.169, 47.753 22.807, 34.162 36.237 C 26.723 43.588, 20.883 52.932, 18.082 61.962 C 16.124 68.274, 16.076 71.238, 16.020 188.712 L 15.962 309 110.981 309 L 206 309 206 187.657 C 206 69.417, 205.949 66.166, 204.024 60.571 C 195.345 35.344, 170.101 16.723, 135.536 10.053 C 122.056 7.452, 100.734 7.393, 87.500 9.921 M 121.211 48.616 C 120.574 53.379, 120.297 57.671, 120.595 58.154 C 121.898 60.261, 122.916 57.392, 123.584 49.733 C 124.411 40.250, 124.424 40.641, 123.260 40.253 C 122.770 40.090, 121.848 43.853, 121.211 48.616 M 141.939 44.750 C 141.170 46.263, 139.519 48.892, 138.270 50.594 C 137.022 52.296, 136 54.003, 136 54.386 C 136 54.770, 135.100 56.050, 134 57.230 C 131.922 59.461, 131.337 62, 132.902 62 C 133.710 62, 146 43.695, 146 42.492 C 146 40.842, 143.109 42.450, 141.939 44.750 M 131.460 48.750 C 130.583 51.913, 129.472 55.728, 128.992 57.228 C 128.121 59.952, 129.257 62.011, 130.511 59.981 C 131.366 58.599, 135 45.864, 135 44.253 C 135 43.564, 134.563 43, 134.028 43 C 133.493 43, 132.338 45.587, 131.460 48.750 M 85.930 50.584 C 84.267 52.588, 85.800 55.365, 88.817 55.815 C 90.369 56.046, 91.096 55.465, 91.559 53.622 C 91.905 52.242, 91.894 50.638, 91.535 50.057 C 90.563 48.484, 87.428 48.779, 85.930 50.584 M 126.596 49.845 C 125.402 51.777, 124.778 59, 125.805 59 C 126.903 59, 127.393 57.776, 128.505 52.250 C 129.112 49.233, 127.910 47.719, 126.596 49.845 M 88.333 52.667 C 88.700 53.033, 89.300 53.033, 89.667 52.667 C 90.033 52.300, 89.733 52, 89 52 C 88.267 52, 87.967 52.300, 88.333 52.667 M 144.500 58.004 C 138.516 62.653, 136.520 63.154, 140.490 59.010 C 144.520 54.804, 142.720 53.910, 138.485 58.015 C 135.386 61.018, 133.531 65.026, 135.924 63.547 C 136.433 63.233, 136.995 63.667, 137.174 64.512 C 137.419 65.664, 139.198 64.808, 144.295 61.086 C 148.032 58.357, 151.104 55.769, 151.120 55.337 C 151.188 53.543, 149.222 54.335, 144.500 58.004 M 149.036 61.104 C 143.281 63.849, 138.369 66.298, 138.120 66.547 C 137.132 67.534, 139.020 68.200, 140.707 67.460 C 141.693 67.027, 142.797 66.634, 143.160 66.586 C 144.935 66.354, 162 57.484, 162 56.794 C 162 55.287, 159.464 56.130, 149.036 61.104 M 56.446 59.087 C 55.416 60.755, 57.733 62.667, 59.113 61.287 C 60.267 60.133, 59.545 58, 58 58 C 57.515 58, 56.816 58.489, 56.446 59.087 M 113.500 60.057 C 111.850 60.526, 108.826 61.173, 106.779 61.495 C 101.618 62.306, 95.111 68.866, 90.759 77.644 C 88.386 82.430, 88.806 84.300, 92.804 86.744 C 94.384 87.710, 95.481 89.077, 95.244 89.783 C 95.006 90.489, 95.155 91.839, 95.575 92.783 C 95.995 93.727, 96.851 96.347, 97.477 98.603 L 98.616 102.707 94.455 104.914 C 83.215 110.877, 68.728 125.349, 63.905 135.432 C 60.033 143.528, 59.394 148.659, 61.478 154.933 C 63.244 160.251, 70.215 168.299, 74.131 169.542 C 75.931 170.113, 76.136 170.724, 75.577 173.854 C 75.218 175.859, 74.656 180.703, 74.328 184.618 C 73.738 191.655, 73.770 191.778, 77.116 195.430 C 81.739 200.475, 86.958 201.229, 92.250 197.619 C 95.117 195.663, 96 195.414, 96 196.562 C 96 199.183, 93.426 204.358, 88.662 211.317 C 86.121 215.029, 83.454 220.080, 82.736 222.541 C 81.720 226.027, 79.218 229.292, 71.413 237.316 C 58.536 250.557, 50.537 256.304, 30.750 266.535 C 22.108 271.003, 21.812 273.266, 29.639 275.031 C 32.071 275.580, 35.497 275.124, 41.641 273.434 C 47.705 271.765, 52.397 271.132, 57.563 271.284 C 64.857 271.499, 64.904 271.483, 69.066 267.500 C 71.364 265.300, 72.781 264.405, 72.215 265.511 C 70.801 268.272, 68.242 270.394, 63.373 272.841 C 58.372 275.354, 57.349 277.462, 60.021 279.750 C 62.772 282.106, 62.497 283, 59.020 283 C 54.985 283, 48 285.899, 48 287.573 C 48 290.512, 52.092 291, 76.722 291 C 100.510 291, 101.767 290.904, 106.030 288.750 C 108.480 287.512, 111.387 285.150, 112.492 283.500 C 118.128 275.080, 116.896 275.714, 129.219 274.895 C 135.423 274.483, 149.071 273.838, 159.548 273.462 C 186.583 272.492, 190.500 271.990, 190.500 269.500 C 190.500 267.873, 188.922 266.990, 182.040 264.767 C 177.189 263.200, 172.525 260.980, 171.108 259.563 C 168.936 257.390, 168.780 256.778, 169.819 254.499 C 171.562 250.672, 171.222 245.085, 168.938 240.050 C 167.827 237.603, 166.481 233.647, 165.946 231.259 C 165.411 228.871, 163.860 225.154, 162.500 222.999 C 161.139 220.844, 158.750 215.112, 157.190 210.262 L 154.354 201.443 157.691 201.832 C 161.875 202.321, 163.698 200.834, 165.044 195.836 C 166.057 192.074, 165.347 185.481, 160.298 151.750 L 159.737 148 163.400 148 C 170.917 148, 178.279 143.127, 182.284 135.500 C 183.960 132.308, 184.388 129.681, 184.404 122.500 C 184.422 114.185, 184.169 113.025, 181.079 107.263 C 174.509 95.010, 161.404 86.322, 143.838 82.574 C 141.690 82.116, 141.054 81.279, 140.539 78.234 C 139.730 73.443, 136.230 67.227, 133 64.843 C 130.135 62.730, 120.270 58.950, 118.014 59.102 C 117.181 59.158, 115.150 59.588, 113.500 60.057 M 117 62.357 C 117 62.554, 119.265 64.979, 122.032 67.747 C 125.489 71.203, 126.862 72.109, 126.416 70.639 C 125.311 66.993, 120.996 62, 118.949 62 C 117.877 62, 117 62.161, 117 62.357 M 149.041 65.542 C 144.388 67.309, 140.407 69.279, 140.193 69.921 C 139.721 71.338, 143.661 70.545, 149.500 68.048 C 151.700 67.108, 154.738 66.029, 156.250 65.650 C 158.875 64.993, 159.851 63.565, 158.250 62.724 C 157.838 62.507, 153.693 63.775, 149.041 65.542 M 71.500 66 C 71.151 67.100, 70.558 68.007, 70.183 68.015 C 69.807 68.024, 68.872 68.428, 68.104 68.915 C 67 69.614, 67.465 70.578, 70.330 73.528 L 73.952 77.257 74.919 74.714 C 75.450 73.315, 76.811 71.877, 77.943 71.518 C 80.310 70.767, 80.718 69, 78.523 69 C 77.711 69, 76.309 67.875, 75.408 66.500 C 73.428 63.478, 72.344 63.340, 71.500 66 M 104.544 64.928 C 104.229 65.438, 104.898 66.150, 106.031 66.510 C 107.164 66.869, 111.333 70.048, 115.295 73.574 C 121.145 78.779, 123.140 79.986, 125.905 79.992 L 129.310 80 127.443 77.750 C 126.416 76.513, 123.097 72.912, 120.069 69.750 C 114.887 64.339, 114.284 64, 109.840 64 C 107.243 64, 104.860 64.418, 104.544 64.928 M 128.704 70.341 C 132.763 80.766, 132.854 80.924, 132.932 77.693 C 133.061 72.360, 130.938 66.293, 128.565 65.211 L 126.306 64.182 128.704 70.341 M 100.086 68.397 C 99.304 69.338, 99.614 70.220, 101.262 71.745 C 104.034 74.308, 110.508 77.653, 114.500 78.583 L 117.500 79.282 115 76.535 C 112.337 73.608, 105.601 68.737, 102.823 67.728 C 101.901 67.393, 100.669 67.694, 100.086 68.397 M 72 70 C 72 70.550, 72.450 71, 73 71 C 73.550 71, 74 70.550, 74 70 C 74 69.450, 73.550 69, 73 69 C 72.450 69, 72 69.450, 72 70 M 143.250 71.706 C 142.012 71.944, 141 72.599, 141 73.162 C 141 73.803, 143.146 73.984, 146.750 73.646 C 149.912 73.349, 153.063 73.082, 153.750 73.053 C 154.438 73.024, 155 72.550, 155 72 C 155 71.024, 147.736 70.842, 143.250 71.706 M 94.452 75.893 C 91.451 80.428, 91.537 83.929, 94.678 85.082 C 96.699 85.824, 96.816 85.639, 96.306 82.495 C 95.670 78.576, 96.593 74, 98.019 74 C 99.248 74, 99.294 86.987, 98.072 88.918 C 96.608 91.230, 99.734 95, 103.115 95 C 106.189 95, 107.112 97.251, 104.631 98.700 C 102.346 100.035, 101.761 103.618, 103.537 105.395 C 105.475 107.333, 104.981 107.324, 109.346 105.500 C 111.320 104.675, 113.400 104, 113.968 104 C 115.770 104, 115.080 105.840, 113.035 106.489 C 111.712 106.909, 110.886 108.321, 110.507 110.806 C 110.198 112.838, 109.070 116.233, 108 118.352 C 106.282 121.753, 106.216 122.514, 107.432 124.852 C 112.857 135.277, 124.014 135.361, 127.118 125 C 128.048 121.895, 127.905 120.893, 126.105 117.941 C 124.401 115.145, 124.007 112.870, 124.004 105.803 C 124.001 98.403, 123.619 96.390, 121.447 92.303 C 118.020 85.857, 114.494 82.314, 108.500 79.295 C 105.750 77.910, 102.052 75.690, 100.282 74.362 L 97.064 71.947 94.452 75.893 M 135.081 73.125 C 134.936 76.027, 136.227 81, 137.125 81 C 137.606 81, 137.980 80.213, 137.955 79.250 C 137.893 76.851, 135.184 71.076, 135.081 73.125 M 101.029 79.961 C 99.054 81.210, 99.725 81.626, 104.750 82.267 C 109.417 82.863, 111.174 81.698, 108.094 80.050 C 105.685 78.761, 102.980 78.727, 101.029 79.961 M 123.500 87.586 C 126.800 90.608, 134.209 96.775, 139.964 101.290 C 164.675 120.678, 171.297 130.237, 167.491 141.025 C 166.062 145.075, 166.071 145.113, 168.273 144.456 C 169.498 144.091, 171.570 143.116, 172.877 142.290 C 175.093 140.889, 175.220 140.324, 174.763 133.933 C 173.787 120.292, 167.514 112.270, 150.938 103.467 C 140.396 97.868, 130.530 91.475, 123.821 85.893 C 116.840 80.085, 116.613 81.280, 123.500 87.586 M 124 83.252 C 126.829 85.944, 141.150 95.136, 151.003 100.583 C 157.768 104.323, 165.103 109.202, 167.304 111.425 C 172.929 117.107, 176.998 126.109, 176.999 132.872 C 177 137.318, 177.237 138.048, 178.375 137.103 C 179.132 136.476, 180.322 133.923, 181.019 131.432 C 182.054 127.736, 182.044 126.128, 180.966 122.701 C 177.695 112.309, 164.059 98.198, 148.087 88.679 C 141.216 84.584, 139.698 84.092, 132 83.467 C 127.325 83.087, 123.725 82.990, 124 83.252 M 101.250 86.250 C 101.479 86.938, 102.942 87.500, 104.500 87.500 C 106.058 87.500, 107.521 86.938, 107.750 86.250 C 108.033 85.402, 106.989 85, 104.500 85 C 102.011 85, 100.967 85.402, 101.250 86.250 M 81.667 88.667 C 81.300 89.033, 81 90.353, 81 91.600 C 81 93.312, 80.345 93.945, 78.327 94.184 C 74.501 94.636, 74.194 96.889, 77.859 97.622 C 80.164 98.083, 80.962 98.840, 81.195 100.787 C 81.616 104.316, 83.780 104.755, 84.178 101.392 C 84.423 99.314, 85.298 98.399, 87.855 97.543 C 90.518 96.651, 90.930 96.192, 89.855 95.317 C 89.110 94.711, 87.600 94.050, 86.500 93.849 C 85.181 93.608, 84.392 92.550, 84.184 90.741 C 83.874 88.057, 82.998 87.335, 81.667 88.667 M 153.083 88.406 C 153.313 88.629, 156.354 90.908, 159.842 93.471 C 167.259 98.921, 173.532 105.014, 178.024 111.132 C 180.390 114.354, 181.042 114.844, 180.512 113 C 178.162 104.836, 169.986 96.041, 160.112 91.057 C 154.681 88.315, 151.921 87.274, 153.083 88.406 M 126.704 96 C 128.383 98.475, 133.163 104.476, 137.328 109.335 C 141.492 114.194, 145.630 120.044, 146.522 122.335 C 147.483 124.800, 149.426 127.316, 151.284 128.500 C 154.400 130.486, 155.912 133.473, 158.020 141.813 C 159.343 147.042, 161.384 147.104, 164.194 142 C 166.747 137.362, 165.953 131.150, 162.031 125.081 C 158.580 119.742, 155.890 117.126, 147 110.466 C 143.425 107.788, 137.575 103.118, 134 100.090 C 123.484 91.181, 123.406 91.138, 126.704 96 M 127 108.645 C 127 116.942, 127.411 117.473, 137.252 121.889 C 143.097 124.511, 143.999 124.688, 143.990 123.208 C 143.980 121.371, 140.585 116.824, 132.250 107.484 L 127 101.601 127 108.645 M 87.587 118.250 C 76.070 129.917, 73.529 134.747, 73.512 145 C 73.500 152.291, 75.522 159.952, 77.023 158.306 C 77.427 157.863, 78.535 152.325, 79.486 146 C 81.455 132.890, 81.895 131.766, 85.999 129.341 C 87.801 128.277, 89.427 126.176, 90.102 124.039 C 91.216 120.512, 93.171 116.720, 96.485 111.664 C 99.685 106.780, 96.806 108.911, 87.587 118.250 M 99.470 112.218 C 96.218 116.082, 92.376 123.709, 93.244 124.577 C 94.182 125.516, 104.058 119.841, 105.611 117.470 C 106.359 116.329, 107.259 113.956, 107.610 112.198 C 108.218 109.162, 108.096 109, 105.214 109 C 103.022 109, 101.425 109.895, 99.470 112.218 M 56.390 111.426 C 55.462 113.845, 56.708 116, 59.035 116 C 60.732 116, 61.072 115.476, 60.816 113.259 C 60.461 110.183, 57.360 108.899, 56.390 111.426 M 83.948 115.360 C 76.919 120.878, 70.841 127.962, 67.095 135 C 63.543 141.675, 62.550 146.514, 63.471 152.655 C 64.047 156.494, 65.093 158.224, 69.518 162.649 C 72.462 165.592, 75.349 168, 75.935 168 C 77.861 168, 77.052 164.449, 73.752 158.428 C 66.948 146.013, 70.238 132.547, 83.599 118.115 C 87.223 114.202, 90.033 111, 89.844 111.001 C 89.655 111.001, 87.002 112.962, 83.948 115.360 M 131.991 127.752 C 130.854 130.323, 129.272 133.147, 128.476 134.026 C 127.185 135.453, 127.790 136.251, 134.117 141.456 C 139.246 145.675, 141.422 146.935, 141.991 146.015 C 142.925 144.503, 145 145.531, 145 147.506 C 145 148.270, 146.165 151.055, 147.589 153.697 C 149.791 157.784, 150.094 159.336, 149.619 164.103 C 149.066 169.658, 149.100 169.746, 153.531 174.371 C 157.486 178.498, 159.237 182, 157.346 182 C 156.986 182, 155.215 180.275, 153.410 178.166 C 151.605 176.057, 146.837 171.705, 142.814 168.494 C 133.290 160.894, 132.173 159.573, 130.862 154.365 C 130.237 151.886, 129.174 150, 128.400 150 C 127.651 150, 126.752 148.861, 126.403 147.468 C 125.824 145.162, 125.655 145.089, 124.512 146.653 C 123.368 148.217, 123.112 148.109, 121.618 145.434 L 119.980 142.500 120.623 146.500 C 120.976 148.700, 120.927 150.184, 120.514 149.798 C 120.100 149.411, 119.121 149.736, 118.339 150.518 C 117.108 151.749, 117.148 152.317, 118.638 154.721 C 119.585 156.249, 121.556 158.850, 123.019 160.500 C 124.481 162.150, 126.948 165.750, 128.502 168.500 C 132.630 175.806, 139.609 184.644, 146.800 191.672 C 153.954 198.664, 157.834 200.574, 160.669 198.498 C 162.218 197.363, 162.471 195.886, 162.309 188.902 C 162.121 180.771, 159.435 161.680, 156.413 147 C 155.564 142.875, 154.670 138.509, 154.427 137.297 C 153.660 133.470, 149.744 130.145, 141.780 126.556 L 134.059 123.078 131.991 127.752 M 93.500 128.088 C 85.850 132.019, 83.264 134.896, 82.585 140.231 C 82.287 142.579, 81.348 149.450, 80.500 155.500 C 76.476 184.186, 76.008 188.891, 76.933 191.323 C 78.199 194.655, 81.769 197, 85.572 197 C 91.917 197, 102.891 186.027, 111.691 170.881 C 114.209 166.547, 116.547 162.993, 116.885 162.985 C 117.223 162.976, 118.094 162.593, 118.820 162.132 C 119.856 161.476, 119.570 160.455, 117.495 157.398 C 116.040 155.254, 114.417 153.500, 113.889 153.500 C 113.360 153.500, 112.535 152.865, 112.055 152.089 C 111.415 151.053, 110.906 151.682, 110.139 154.457 C 108.705 159.653, 105.621 163.865, 100.229 167.995 C 97.719 169.917, 93.410 174.305, 90.654 177.745 C 87.897 181.185, 85.272 184, 84.821 184 C 83.064 184, 84.167 181.578, 88.020 176.977 L 92.039 172.176 90.797 167.532 C 89.718 163.496, 89.792 162.276, 91.365 158.195 C 92.361 155.613, 93.475 151.962, 93.841 150.082 C 94.207 148.202, 95.115 146.462, 95.859 146.214 C 96.852 145.883, 97.021 146.357, 96.498 148.007 C 95.949 149.737, 96.097 150.067, 97.143 149.449 C 98.515 148.638, 109.776 140.306, 111.356 138.932 C 111.827 138.522, 110.336 136.491, 108.042 134.419 C 105.748 132.346, 103.213 129.379, 102.410 127.825 C 101.606 126.271, 100.623 125.001, 100.224 125.002 C 99.826 125.003, 96.800 126.392, 93.500 128.088 M 104 125.500 C 104 125.775, 104.225 126, 104.500 126 C 104.775 126, 105 125.775, 105 125.500 C 105 125.225, 104.775 125, 104.500 125 C 104.225 125, 104 125.225, 104 125.500 M 128.144 128.750 C 127.053 131.300, 127.078 131.359, 128.484 129.559 C 129.318 128.491, 130 127.254, 130 126.809 C 130 125.289, 129.322 125.999, 128.144 128.750 M 105 127.378 C 105 127.585, 105.787 128.373, 106.750 129.128 C 108.336 130.371, 108.371 130.336, 107.128 128.750 C 105.821 127.084, 105 126.555, 105 127.378 M 108 131.500 C 108 131.775, 108.225 132, 108.500 132 C 108.775 132, 109 131.775, 109 131.500 C 109 131.225, 108.775 131, 108.500 131 C 108.225 131, 108 131.225, 108 131.500 M 126 132.500 C 126 132.775, 126.225 133, 126.500 133 C 126.775 133, 127 132.775, 127 132.500 C 127 132.225, 126.775 132, 126.500 132 C 126.225 132, 126 132.225, 126 132.500 M 111 133.500 C 111 133.775, 111.225 134, 111.500 134 C 111.775 134, 112 133.775, 112 133.500 C 112 133.225, 111.775 133, 111.500 133 C 111.225 133, 111 133.225, 111 133.500 M 114 135.500 C 114 135.775, 114.225 136, 114.500 136 C 114.775 136, 115 135.775, 115 135.500 C 115 135.225, 114.775 135, 114.500 135 C 114.225 135, 114 135.225, 114 135.500 M 127.269 140.924 C 127.431 143.077, 128.478 143.653, 129.430 142.113 C 129.731 141.626, 129.333 140.692, 128.545 140.038 C 127.376 139.068, 127.142 139.231, 127.269 140.924 M 124.158 142 C 124.158 143.375, 124.385 143.938, 124.662 143.250 C 124.940 142.563, 124.940 141.438, 124.662 140.750 C 124.385 140.063, 124.158 140.625, 124.158 142 M 104.713 147.117 C 96.213 153.502, 93 158.043, 93 163.673 C 93 165.988, 93.461 168.167, 94.023 168.514 C 95.353 169.336, 104.677 161.526, 106.443 158.111 C 107.193 156.660, 108.131 153.307, 108.529 150.658 C 108.977 147.664, 109.865 145.589, 110.875 145.171 C 112.530 144.488, 113.615 141.992, 112.250 142.010 C 111.838 142.015, 108.446 144.313, 104.713 147.117 M 133 148.266 C 133 155.099, 134.722 158.609, 140.225 162.990 C 142.995 165.196, 145.652 167, 146.131 167 C 147.745 167, 147.047 157.591, 145.227 154.832 C 144.260 153.365, 141.113 150.289, 138.234 147.997 L 133 143.830 133 148.266 M 185 145.583 C 185 146.454, 185.534 146.989, 186.188 146.771 C 188.042 146.153, 188.349 144, 186.583 144 C 185.713 144, 185 144.713, 185 145.583 M 102.122 151.513 C 98.475 155.667, 95.825 160.492, 96.707 161.373 C 97.792 162.459, 99 162.056, 99 160.608 C 99 159.843, 101.025 156.964, 103.500 154.211 C 105.975 151.458, 108 148.935, 108 148.603 C 108 146.860, 104.831 148.429, 102.122 151.513 M 174.667 153.667 C 174.300 154.033, 174 155.558, 174 157.055 C 174 159.384, 173.485 159.874, 170.436 160.446 C 166.239 161.233, 166.317 163.265, 170.574 164.008 C 172.837 164.404, 173.596 165.163, 173.992 167.426 C 174.718 171.581, 176.796 171.831, 177.182 167.811 C 177.459 164.922, 177.919 164.436, 180.789 164 C 185.194 163.330, 185.286 161.753, 181 160.375 C 178.111 159.447, 177.445 158.705, 177.187 156.125 C 176.883 153.100, 176.048 152.285, 174.667 153.667 M 194.133 163.340 C 192.553 165.243, 193.760 168, 196.173 168 C 197.710 168, 198.064 167.423, 197.816 165.327 C 197.448 162.218, 195.801 161.329, 194.133 163.340 M 118.837 165.250 C 117.987 165.938, 115.550 169.425, 113.422 173 C 111.294 176.575, 107.178 182.299, 104.276 185.720 C 100.273 190.439, 98.995 192.731, 98.978 195.220 C 98.951 199.244, 96.088 205.732, 91.629 211.877 C 83.815 222.644, 86.909 220.444, 103.688 203.304 C 120.854 185.768, 121.673 185.084, 126.264 184.438 C 134.709 183.251, 138.015 185.823, 148.514 201.750 C 151.143 205.738, 153.425 209, 153.586 209 C 153.747 209, 153.168 206.863, 152.300 204.250 C 151.194 200.921, 148.583 197.256, 143.574 192 C 135.136 183.145, 131.664 178.696, 126.601 170.250 C 122.767 163.853, 121.540 163.063, 118.837 165.250 M 125.809 177.984 C 124.879 179.618, 124.511 181.198, 124.991 181.494 C 125.990 182.112, 129 178.195, 129 176.277 C 129 174.111, 127.581 174.870, 125.809 177.984 M 114.010 180.484 C 112.826 182.400, 110.696 184.881, 109.276 185.998 C 106.263 188.367, 106.967 189.898, 110.252 188.118 C 112.656 186.815, 118 179.899, 118 178.090 C 118 175.938, 116.124 177.064, 114.010 180.484 M 188.797 181.003 C 187.860 182.651, 186.397 184, 185.547 184 C 183.361 184, 183.620 186.088, 185.878 186.678 C 186.911 186.948, 188.251 188.256, 188.857 189.585 C 190.059 192.224, 192 192.841, 192 190.583 C 192 189.804, 193.238 188.201, 194.750 187.021 C 196.650 185.538, 197.096 184.708, 196.194 184.335 C 194.824 183.770, 193.736 182.656, 191.716 179.753 C 190.605 178.156, 190.353 178.264, 188.797 181.003 M 113.684 186.902 C 110.416 191.840, 105.320 196.625, 101.759 198.100 C 99.115 199.195, 97.980 201, 99.935 201 C 102.157 201, 106.716 198.670, 109.350 196.186 C 112.700 193.029, 118 185.604, 118 184.070 C 118 181.916, 116.203 183.096, 113.684 186.902 M 189.543 184.931 C 188.860 186.036, 190.437 187.230, 191.361 186.306 C 192.311 185.355, 192.134 184, 191.059 184 C 190.541 184, 189.859 184.419, 189.543 184.931 M 123.865 187.800 C 120.599 189.328, 110.290 199.630, 88.109 223.535 C 63.963 249.558, 56.203 256.005, 35.972 266.856 L 26.667 271.847 30.296 272.528 C 32.837 273.004, 35.794 272.578, 40.157 271.104 C 44.635 269.592, 48.883 269, 55.254 269 L 64.120 269 69.590 263.827 C 72.598 260.981, 75.901 256.752, 76.929 254.428 C 80.071 247.324, 85.891 242.394, 94.064 239.912 C 97.995 238.718, 103.302 236.591, 105.856 235.186 C 112.967 231.273, 123.215 220.339, 127.026 212.599 C 129.003 208.582, 130.679 206.279, 131.226 206.826 C 132.503 208.103, 130.166 213.219, 124.615 221.300 C 119.655 228.522, 119.237 232.595, 124.056 226.748 C 125.611 224.862, 129.881 221.784, 133.545 219.909 C 141.058 216.065, 147 210.183, 147 206.592 C 147 203.569, 138.340 190.678, 135 188.730 C 130.772 186.264, 127.699 186.007, 123.865 187.800 M 172.336 203.567 C 172.005 204.429, 172.225 205.625, 172.825 206.225 C 174.269 207.669, 177.096 205.414, 176.334 203.427 C 175.602 201.521, 173.087 201.609, 172.336 203.567 M 148.520 210.938 C 147.638 213.717, 142.109 218.291, 135.152 221.999 C 131.683 223.849, 127.422 227.243, 125.074 230.028 C 119.848 236.225, 112.478 239.733, 101.121 241.430 C 87.392 243.481, 82.597 247.436, 77.058 261.276 C 73.978 268.972, 71.775 271.574, 65.751 274.626 L 60.700 277.186 63.600 279.525 C 66.200 281.621, 66.343 282.024, 64.982 283.414 C 64.148 284.266, 61.032 285.425, 58.059 285.989 C 45.722 288.328, 52.230 289.204, 79.098 288.820 C 100.113 288.520, 101.762 288.360, 105.729 286.240 C 108.056 284.997, 110.627 282.689, 111.443 281.110 C 114.792 274.634, 117.962 272.068, 125.337 269.864 C 131.602 267.991, 133.189 266.992, 138 261.892 C 143.909 255.627, 152.348 250.948, 154.271 252.871 C 155.016 253.616, 153.873 254.575, 150.415 256.108 L 145.500 258.285 149.421 259.163 C 152.796 259.918, 153.872 259.689, 157.149 257.520 C 159.244 256.134, 162.245 255, 163.818 255 C 165.913 255, 166.990 254.318, 167.839 252.453 C 169.471 248.872, 169.343 247.875, 166.295 240.454 L 163.591 233.868 161.045 236.760 C 159.645 238.351, 155.227 241.368, 151.226 243.463 C 144.364 247.057, 140.062 251.122, 137.052 256.857 C 136.175 258.528, 135.504 258.904, 134.748 258.148 C 133.992 257.392, 134.462 255.900, 136.363 253.028 C 140.042 247.468, 144.023 244.114, 151.827 240 C 158.857 236.294, 163.379 231.168, 162.250 228.185 C 161.899 227.258, 159.925 223.884, 157.865 220.686 L 154.118 214.872 152.523 217.956 C 150.018 222.800, 140 229.314, 140 226.099 C 140 225.603, 141.512 224.305, 143.361 223.215 C 148.379 220.254, 152.364 214.587, 151.592 211.510 C 150.841 208.518, 149.374 208.245, 148.520 210.938 M 113.500 233.114 C 107.545 237.565, 107.199 238.155, 111.553 236.432 C 116.947 234.297, 119.618 232.215, 118.446 231.058 C 117.857 230.476, 115.990 231.253, 113.500 233.114 M 105.828 248.293 C 103.447 250.105, 99.250 254.492, 96.500 258.043 C 88.387 268.520, 82.682 273.620, 75.086 277.189 C 71.211 279.010, 68.031 280.837, 68.020 281.250 C 67.980 282.769, 71.416 281.921, 77.567 278.892 C 83.854 275.797, 89.761 270.262, 101.442 256.520 C 104.161 253.322, 107.872 249.828, 109.691 248.755 C 111.509 247.682, 112.746 246.398, 112.439 245.902 C 111.523 244.419, 110.371 244.836, 105.828 248.293 M 127.225 250.994 C 125.973 252.580, 122.486 255.083, 119.475 256.556 C 114.550 258.965, 112.464 261, 114.917 261 C 119.139 261, 132 252.065, 132 249.132 C 132 247.095, 129.547 248.052, 127.225 250.994 M 158.785 259.500 C 154.855 262.171, 150.823 262.644, 146.381 260.955 C 143.842 259.989, 143.253 260.296, 138.642 264.980 C 135.897 267.768, 132.608 270.311, 131.333 270.631 C 130.057 270.951, 129.193 271.503, 129.411 271.857 C 129.914 272.672, 183.606 269.727, 184.498 268.835 C 184.861 268.472, 182.546 267.632, 179.353 266.969 C 174.617 265.986, 172.751 264.956, 169.227 261.382 C 166.851 258.972, 164.357 257, 163.686 257 C 163.014 257, 160.809 258.125, 158.785 259.500 M 83.806 276.986 C 81.225 278.607, 77.962 280.222, 76.556 280.575 C 74.010 281.214, 73.262 282.426, 74.818 283.388 C 76.694 284.547, 90 277.060, 90 274.845 C 90 273.452, 88.738 273.889, 83.806 276.986" stroke="none" fill="#c59606" fill-rule="evenodd"/>
</svg>