<svg xmlns="http://www.w3.org/2000/svg" width="962" height="415" viewBox="0 0 962 415" version="1.1">
	<path d="M 516.441 1.468 C 514.719 2.771, 514.694 2.940, 516.215 2.968 C 518.311 3.007, 520.214 6.280, 519.389 8.428 C 519.058 9.292, 519.186 10, 519.674 10 C 520.162 10, 521.084 8.615, 521.724 6.921 C 522.363 5.228, 523.811 3.601, 524.943 3.305 C 527.934 2.523, 527.464 1.343, 523.875 0.625 C 519.414 -0.267, 518.616 -0.177, 516.441 1.468 M 855.750 1.031 C 857.433 1.708, 858 2.750, 858 5.168 C 858 8.557, 859.516 8.107, 860.162 4.525 C 860.358 3.439, 861.639 1.983, 863.009 1.290 C 865.277 0.142, 864.962 0.034, 859.500 0.078 C 854.898 0.115, 854.024 0.338, 855.750 1.031 M 260 2.443 C 260 3.237, 259 4.587, 257.777 5.443 L 255.555 7 257.777 8.557 C 259.083 9.471, 260.034 11.224, 260.082 12.807 C 260.162 15.458, 260.186 15.447, 261.628 12.144 C 262.433 10.299, 263.971 8.559, 265.046 8.278 C 267.596 7.611, 267.538 6.374, 264.926 5.691 C 263.785 5.393, 262.607 4.215, 262.309 3.074 C 261.693 0.718, 260 0.255, 260 2.443 M 147.311 5.874 C 146.528 7.127, 146.559 8.044, 147.423 9.225 C 148.515 10.719, 148.699 10.711, 149.689 9.126 C 150.472 7.873, 150.441 6.956, 149.577 5.775 C 148.485 4.281, 148.301 4.289, 147.311 5.874 M 210.619 11.381 C 210.290 12.691, 209.006 14.047, 207.761 14.396 C 205.543 15.020, 205.538 15.054, 207.500 16.181 C 210.233 17.750, 211.054 19.180, 210.410 21.250 C 210.110 22.212, 210.297 23, 210.824 23 C 211.352 23, 212.070 21.859, 212.420 20.465 C 212.775 19.047, 214.146 17.515, 215.528 16.989 C 218.644 15.805, 218.638 15.193, 215.500 14 C 213.969 13.418, 213 12.264, 213 11.025 C 213 8.230, 211.348 8.477, 210.619 11.381 M 636.827 11.006 C 635.430 12.543, 635.388 12.935, 636.577 13.391 C 637.360 13.692, 638.029 14.964, 638.063 16.219 L 638.127 18.500 639.039 16.228 C 639.541 14.978, 640.603 13.706, 641.399 13.401 C 642.587 12.944, 642.503 12.503, 640.923 10.923 C 638.676 8.676, 638.952 8.670, 636.827 11.006 M 431 13.500 C 430.477 14.875, 429.363 16, 428.525 16 C 426.402 16, 426.622 17.283, 429 18.768 C 430.131 19.474, 431 21.100, 431 22.508 C 431 23.879, 431.450 25, 432 25 C 432.550 25, 433 24.133, 433 23.073 C 433 22.012, 434.125 20.260, 435.500 19.179 C 438.368 16.923, 438.651 16, 436.475 16 C 435.637 16, 434.523 14.875, 434 13.500 C 433.477 12.125, 432.802 11, 432.500 11 C 432.198 11, 431.523 12.125, 431 13.500 M 752 14.500 C 751.477 15.875, 750.363 17, 749.525 17 C 747.308 17, 747.656 18.677, 750 19.290 C 751.456 19.671, 752 20.654, 752 22.906 C 752 26.870, 753.566 26.921, 754.353 22.983 C 754.766 20.920, 755.832 19.619, 757.728 18.864 L 760.500 17.762 757.750 16.797 C 756.042 16.199, 755 15.107, 755 13.917 C 755 11.182, 753.123 11.547, 752 14.500 M 105.168 16.531 C 104.549 17.889, 103.358 19, 102.521 19 C 100.402 19, 100.624 20.284, 103 21.768 C 104.131 22.474, 105 24.100, 105 25.508 C 105 26.879, 105.450 28, 106 28 C 106.550 28, 107 27.170, 107 26.155 C 107 24.237, 109.408 21.633, 112 20.750 C 113.063 20.387, 112.699 19.920, 110.750 19.144 C 109.237 18.542, 108 17.390, 108 16.584 C 108 14.009, 106.331 13.979, 105.168 16.531 M 825.711 19.997 C 825.424 21.096, 824.197 22.362, 822.984 22.810 C 820.787 23.623, 820.789 23.632, 823.484 25.398 C 825.339 26.613, 826.032 27.771, 825.688 29.084 C 825.413 30.137, 825.596 31.250, 826.094 31.558 C 826.592 31.866, 827 31.372, 827 30.460 C 827 29.548, 828.343 27.548, 829.985 26.014 C 832.814 23.372, 832.862 23.197, 830.911 22.687 C 829.778 22.391, 828.607 21.215, 828.309 20.074 C 827.622 17.445, 826.388 17.409, 825.711 19.997 M 569.196 26.113 C 568.623 27.551, 567.106 29.023, 565.827 29.385 L 563.500 30.043 566 31.436 C 567.386 32.209, 568.763 34.093, 569.090 35.665 L 569.681 38.500 570.792 35.811 C 571.404 34.332, 572.826 32.628, 573.952 32.026 C 576.531 30.645, 576.602 29, 574.083 29 C 572.893 29, 571.801 27.958, 571.203 26.250 L 570.238 23.500 569.196 26.113 M 286 31.594 C 268.315 39.255, 268.452 65.026, 286.218 72.447 C 294.718 75.998, 306.878 72.782, 312.419 65.518 C 315.446 61.548, 315.796 59.447, 313.250 60.531 C 306.946 63.212, 304.065 63.397, 299.306 61.425 C 294.013 59.231, 290.437 54.846, 289.390 49.266 C 288.457 44.292, 291.586 37.193, 296.024 34.214 C 297.936 32.930, 299.650 31.457, 299.833 30.940 C 300.367 29.435, 289.836 29.933, 286 31.594 M 784.167 40.104 C 783.444 41.263, 783.375 42, 783.992 42 C 784.546 42, 785 42.775, 785 43.723 C 785 45.136, 785.281 45.044, 786.563 43.214 C 787.895 41.311, 787.921 40.778, 786.738 39.595 C 785.555 38.412, 785.177 38.487, 784.167 40.104 M 342.711 40.997 C 342.424 42.096, 341.197 43.362, 339.984 43.810 L 337.780 44.626 340.390 46.336 C 342.092 47.451, 343.028 48.994, 343.082 50.773 C 343.163 53.482, 343.173 53.478, 344.628 50.144 C 345.433 48.299, 346.971 46.559, 348.046 46.278 C 350.596 45.611, 350.538 44.374, 347.926 43.691 C 346.785 43.393, 345.607 42.215, 345.309 41.074 C 344.622 38.445, 343.388 38.409, 342.711 40.997 M 141 55.025 C 141 56.306, 140.005 57.428, 138.292 58.079 L 135.585 59.108 138.037 60.331 C 139.534 61.077, 140.701 62.712, 141.031 64.527 L 141.572 67.500 142.701 64.344 C 143.322 62.609, 144.768 60.891, 145.915 60.527 C 148.580 59.681, 148.585 58.386, 145.926 57.691 C 144.785 57.393, 143.607 56.215, 143.309 55.074 C 142.613 52.413, 141 52.378, 141 55.025 M 613.193 60.277 C 612.553 61.804, 611.010 63.447, 609.765 63.927 C 607.570 64.773, 607.562 64.824, 609.500 65.577 C 612.089 66.583, 612.957 67.919, 613.024 71 C 613.074 73.307, 613.190 73.242, 614.529 70.159 C 615.327 68.321, 616.884 66.581, 617.990 66.292 C 620.665 65.593, 620.526 64.561, 617.577 63.217 C 616.244 62.610, 614.975 61.075, 614.755 59.807 C 614.367 57.556, 614.329 57.567, 613.193 60.277 M 872.183 60.906 C 871.626 62.504, 870.232 64.109, 869.085 64.473 C 866.319 65.351, 866.453 66.430, 869.500 67.818 C 871.478 68.719, 872 69.693, 872 72.479 C 872 77.024, 873.518 76.990, 875.029 72.411 C 875.863 69.884, 877.071 68.523, 879.107 67.813 C 882.789 66.529, 882.722 65.856, 878.728 64 C 876.739 63.076, 875.377 61.636, 875.180 60.250 C 874.739 57.141, 873.393 57.435, 872.183 60.906 M 190.442 61.258 C 189.717 62.051, 189.703 63.092, 190.398 64.564 L 191.412 66.713 193.077 64.656 C 194.444 62.969, 194.509 62.366, 193.443 61.300 C 191.904 59.762, 191.810 59.760, 190.442 61.258 M 680.427 64.080 C 679.472 65.136, 679.178 66, 679.775 66 C 680.372 66, 681.005 66.882, 681.180 67.959 C 681.483 69.813, 681.613 69.791, 683.595 67.549 C 685.586 65.295, 685.603 65.104, 683.927 63.670 C 682.342 62.313, 681.990 62.354, 680.427 64.080 M 362.619 79.381 C 362.291 80.690, 361.004 82.063, 359.761 82.432 L 357.500 83.102 359.770 84.026 C 361.185 84.602, 362.276 86.129, 362.666 88.080 L 363.292 91.211 364.558 88.201 C 365.254 86.545, 366.763 84.893, 367.912 84.528 C 370.661 83.655, 370.575 82.221, 367.750 81.820 C 366.304 81.614, 365.386 80.696, 365.180 79.250 C 364.762 76.303, 363.374 76.374, 362.619 79.381 M 789.128 86.250 C 788.524 87.789, 787.280 89, 786.302 89 C 784.843 89, 784.921 89.256, 786.777 90.557 C 788 91.413, 789 92.988, 789 94.057 C 789 95.126, 789.450 96, 790 96 C 790.550 96, 791 95.058, 791 93.906 C 791 92.654, 791.803 91.603, 793 91.290 C 795.378 90.668, 795.597 89.443, 793.476 88.629 C 792.638 88.308, 791.559 87.022, 791.079 85.772 C 790.206 83.501, 790.205 83.501, 789.128 86.250 M 248 90.393 C 248 91.159, 247.213 92.089, 246.250 92.460 C 244.583 93.102, 244.583 93.181, 246.250 94.117 C 247.213 94.657, 248.029 96.090, 248.063 97.300 L 248.127 99.500 249 97.335 C 249.480 96.145, 250.689 94.713, 251.686 94.153 C 253.398 93.192, 253.401 93.097, 251.750 92.460 C 250.787 92.089, 250 91.159, 250 90.393 C 250 89.627, 249.550 89, 249 89 C 248.450 89, 248 89.627, 248 90.393 M 721 93.094 C 721 94.346, 720.197 95.397, 719 95.710 C 716.489 96.367, 716.470 97.188, 718.930 98.724 C 719.992 99.387, 721.038 101.183, 721.255 102.715 L 721.650 105.500 722.908 102.291 C 723.601 100.526, 725.030 98.808, 726.084 98.473 C 728.597 97.676, 728.523 96.370, 725.926 95.691 C 724.785 95.393, 723.607 94.215, 723.309 93.074 C 722.604 90.379, 721 90.393, 721 93.094 M 94 93.304 C 94 94.182, 93.213 95.373, 92.250 95.950 C 90.583 96.950, 90.583 97.050, 92.250 98.050 C 93.213 98.627, 94.030 99.865, 94.068 100.800 C 94.119 102.101, 94.390 101.971, 95.220 100.250 C 95.817 99.013, 96.912 98, 97.653 98 C 99.525 98, 99.364 97.495, 96.500 94.405 C 94.671 92.432, 94 92.136, 94 93.304 M 163.911 101.089 C 162.458 102.542, 162.458 102.845, 163.911 104.612 C 165.432 106.463, 165.575 106.470, 167.250 104.773 C 168.917 103.084, 168.917 102.917, 167.250 101.250 C 165.651 99.651, 165.363 99.637, 163.911 101.089 M 230 103.025 C 230 104.306, 228.990 105.446, 227.250 106.128 C 224.543 107.189, 224.534 107.219, 226.709 108.056 C 228.035 108.566, 229.260 110.224, 229.773 112.203 L 230.629 115.500 231.729 112.344 C 232.335 110.609, 233.768 108.891, 234.915 108.527 C 237.580 107.681, 237.585 106.386, 234.926 105.691 C 233.785 105.393, 232.607 104.215, 232.309 103.074 C 231.613 100.413, 230 100.378, 230 103.025 M 318.432 115.500 C 318.035 116.600, 316.802 118.232, 315.692 119.127 C 313.674 120.755, 313.674 120.755, 315.837 121.913 C 317.156 122.619, 318 124.032, 318 125.535 C 318 128.620, 319.748 128.792, 320.180 125.750 C 320.356 124.513, 321.512 123.056, 322.750 122.513 C 325.266 121.409, 325.802 119, 323.532 119 C 322.725 119, 321.409 117.763, 320.609 116.250 C 319.249 113.679, 319.107 113.631, 318.432 115.500 M 655 121.433 C 655 122.221, 654.061 123.163, 652.913 123.528 L 650.826 124.190 652.913 125.652 C 654.061 126.456, 655.036 128.100, 655.079 129.307 C 655.130 130.731, 655.340 130.974, 655.679 130 C 655.965 129.175, 657.338 127.536, 658.730 126.359 C 661.238 124.236, 661.242 124.211, 659.130 123.541 C 657.959 123.169, 657 122.221, 657 121.433 C 657 120.645, 656.550 120, 656 120 C 655.450 120, 655 120.645, 655 121.433 M 574.911 127.089 C 573.458 128.542, 573.461 128.851, 574.942 130.680 C 576.560 132.678, 576.565 132.678, 578.092 130.591 C 579.466 128.712, 579.463 128.348, 578.061 127 C 576.673 125.666, 576.324 125.676, 574.911 127.089" stroke="none" fill="#be9618" fill-rule="evenodd"/>
</svg>