<svg xmlns="http://www.w3.org/2000/svg" width="962" height="415" viewBox="0 0 962 415" version="1.1">
	<path d="M 0 325 C 0 325.658, 26.265 326.008, 76.750 326.023 C 118.963 326.035, 159.125 326.495, 166 327.044 C 172.875 327.593, 183.450 328.435, 189.500 328.915 C 220.227 331.351, 245.609 343.702, 266.504 366.385 C 271.452 371.756, 278.425 378.318, 282 380.967 C 294.401 390.155, 299.690 392.157, 325 397.242 C 328.822 398.009, 376.716 398.453, 482 398.696 C 645.198 399.073, 635.167 399.339, 660.500 393.960 C 676.651 390.530, 688.310 383.134, 703.142 366.904 C 724.306 343.746, 749.809 331.399, 781.500 328.967 C 788.650 328.418, 795.400 327.680, 796.500 327.327 C 797.600 326.975, 835.363 326.419, 880.417 326.093 C 933.609 325.708, 962.451 325.149, 962.668 324.500 C 963.050 323.354, 801.482 324.103, 799 325.259 C 798.175 325.643, 791.200 326.393, 783.500 326.925 C 765.800 328.147, 751.773 331.594, 738.500 337.982 C 728.771 342.665, 712.971 353.526, 708.131 358.858 C 686.180 383.040, 678.158 388.273, 655.421 393.240 L 640.500 396.500 485.500 396.500 L 330.500 396.500 317 393.679 C 294.726 389.025, 287.076 384.521, 267.500 364.533 C 243.799 340.333, 220.647 329.334, 188.500 327.004 C 181.350 326.486, 171 325.610, 165.500 325.057 C 152.012 323.701, 0 323.649, 0 325 M -0 325 C -0 325.733, 0.300 326.033, 0.667 325.667 C 1.033 325.300, 1.033 324.700, 0.667 324.333 C 0.300 323.967, -0 324.267, -0 325 M 82 341.942 C 77.875 342.326, 74.950 342.789, 75.500 342.972 C 76.050 343.155, 85.275 343.410, 96 343.538 C 126.544 343.903, 155.722 345.629, 162.500 347.473 C 169.153 349.281, 176.010 352.896, 180.350 356.883 C 183.115 359.422, 189 367.278, 189 368.430 C 189 368.744, 186.412 369.003, 183.250 369.008 C 170.620 369.024, 158.968 372.592, 151.050 378.868 C 147.956 381.320, 147.707 386.913, 150.550 390.057 C 159.922 400.420, 182.662 397.840, 190.346 385.542 C 192.693 381.786, 193.131 380.111, 192.846 375.993 C 192.501 371.016, 192.510 370.999, 195.553 370.999 C 200.237 371, 226.514 377.713, 231.274 380.125 C 233.598 381.303, 237.208 383.611, 239.296 385.254 C 241.384 386.897, 243.326 388.007, 243.612 387.722 C 244.513 386.821, 238.797 382.170, 233.039 379.119 C 227.042 375.940, 206.343 370.319, 197.068 369.349 C 191.812 368.800, 191.163 368.458, 189.492 365.356 C 186.339 359.501, 178.741 352.490, 171.898 349.121 C 162.978 344.730, 153.533 343.343, 127.500 342.601 C 115.400 342.256, 101.900 341.810, 97.500 341.609 C 93.100 341.409, 86.125 341.558, 82 341.942 M 867 341.610 C 864.525 341.818, 851.475 342.418, 838 342.943 C 822.796 343.535, 811.568 344.436, 808.409 345.316 C 796.664 348.589, 787.941 354.763, 781.845 364.116 C 778.979 368.514, 778.569 368.761, 773.168 369.337 C 765.263 370.181, 744.504 375.630, 738.500 378.438 C 732.850 381.079, 726.150 386.448, 727.185 387.504 C 727.561 387.888, 729.136 387.017, 730.685 385.568 C 732.233 384.119, 735.750 381.839, 738.500 380.501 C 744.322 377.667, 763.950 372.368, 772.191 371.404 L 777.882 370.738 777.377 376.119 C 776.901 381.180, 777.098 381.789, 780.686 386.352 C 785.109 391.979, 794.837 396.926, 801.568 396.972 C 815.528 397.068, 825.991 387.344, 820.052 379.794 C 815.239 373.675, 801.020 369.070, 786.784 369.020 L 781.067 369 783.104 365.548 C 788.081 357.113, 798.658 349.578, 809.181 346.971 C 814.816 345.575, 849.261 343.807, 874.166 343.635 C 884.983 343.561, 894.170 343.163, 894.583 342.750 C 894.996 342.337, 893.571 341.997, 891.417 341.994 C 889.263 341.991, 883.900 341.818, 879.500 341.610 C 875.100 341.403, 869.475 341.403, 867 341.610 M 169.932 371.990 C 162.593 373.262, 152.029 379.370, 150.739 383.088 C 149.800 385.791, 152.897 390.581, 156.782 392.433 C 163.449 395.612, 170.167 395.643, 178.102 392.530 C 184.279 390.106, 185.550 389.141, 188.587 384.566 C 191.673 379.919, 191.956 378.939, 191.230 375.430 L 190.416 371.500 182.458 371.349 C 178.081 371.266, 172.444 371.555, 169.932 371.990 M 779.661 372.440 C 778.316 375.946, 779.074 380.407, 781.728 384.602 C 783.860 387.973, 785.897 389.578, 791.058 391.957 C 798.631 395.448, 804.193 395.835, 811.413 393.375 C 816.169 391.754, 819.988 387.550, 819.996 383.924 C 820.002 381.500, 816.161 378.435, 808.810 374.997 C 803.028 372.292, 800.639 371.789, 791.221 371.292 C 781.509 370.780, 780.250 370.905, 779.661 372.440" stroke="none" fill="#c59606" fill-rule="evenodd"/>
</svg>